<svg width="90" height="90" viewBox="0 0 90 90" fill="none" xmlns="http://www.w3.org/2000/svg">
<path d="M42.7594 76.3871L44.3598 74.4665L42.7594 76.3871C44.0573 77.4687 45.9427 77.4687 47.2406 76.3871L45.6402 74.4665L47.2406 76.3871L67.2816 59.6863C68.9373 58.3065 70.007 56.3493 70.2744 54.2107L73.6374 27.3068C73.8308 25.7591 72.9768 24.2701 71.5431 23.6557L46.3787 12.871C45.4983 12.4936 44.5017 12.4936 43.6213 12.871L18.4569 23.6557C17.0232 24.2701 16.1692 25.7591 16.3626 27.3068L19.7256 54.2107C19.993 56.3493 21.0627 58.3065 22.7184 59.6863L42.7594 76.3871Z" stroke="#3db072" stroke-width="5" stroke-linecap="round"/>
<path d="M33.75 45L44.5687 55.8187C44.7918 56.0418 45.1633 56.0051 45.3383 55.7425L60 33.75" stroke="#3db072" stroke-width="5" stroke-linecap="round"/>
</svg>
