<svg width="35" height="35" viewBox="0 0 35 35" fill="none" xmlns="http://www.w3.org/2000/svg">
<path d="M34.5 17.6063C34.4603 14.3667 33.4955 11.2059 31.7194 8.49627C29.9433 5.7866 27.4301 3.64084 24.4755 2.31172C21.5207 0.982592 18.2478 0.525462 15.042 0.994131C11.8363 1.46282 8.8312 2.83778 6.38071 4.95715C3.93021 7.0765 2.13635 9.85196 1.21038 12.9566C0.284429 16.0614 0.264922 19.366 1.15419 22.4814C2.04346 25.5969 3.80445 28.3932 6.22978 30.5413C8.65508 32.6895 11.6437 34.0999 14.8437 34.6063V22.5575H10.5938V17.6063H14.8437V13.845C14.7454 12.9705 14.8401 12.085 15.1215 11.251C15.4028 10.4171 15.8637 9.65508 16.4717 9.01875C17.0797 8.38239 17.8198 7.88725 18.6401 7.56826C19.4603 7.24926 20.3407 7.11417 21.2187 7.17257C22.4933 7.19001 23.7649 7.30368 25.0225 7.51257V11.7626H22.8975C22.5311 11.7163 22.1588 11.7531 21.8086 11.87C21.4582 11.9869 21.1386 12.1811 20.8734 12.4381C20.6082 12.6952 20.4042 13.0085 20.2765 13.355C20.1486 13.7016 20.1004 14.0724 20.135 14.44V17.6488H24.8525L24.0875 22.6H20.1562V34.5C24.1723 33.8648 27.8277 31.8112 30.4593 28.7117C33.0909 25.6122 34.5244 21.6722 34.5 17.6063Z" fill="#3DB072"/>
</svg>
