<svg width="282" height="48" viewBox="0 0 282 48" fill="none" xmlns="http://www.w3.org/2000/svg">
<path d="M25.5 0L51 15.6477V42.3068H44.625V19.125L25.5 7.53409L6.375 19.125V42.3068H0V15.6477L25.5 0Z" fill="#3DB072"/>
<path d="M25.5 18.5454L35.9318 24.9204V42.8863H28.9773V28.9772L25.5 26.659L22.0228 28.9772V42.8863H15.0682V24.9204L25.5 18.5454Z" fill="#3DB072"/>
<path d="M60.0474 43V12.088H72.5754C77.1514 12.088 80.5434 13.304 82.7514 15.736C84.9594 18.136 86.0634 22.136 86.0634 27.736C86.0634 33.016 84.9754 36.888 82.7994 39.352C80.6234 41.784 77.2154 43 72.5754 43H60.0474ZM65.2794 38.968H71.7594C73.7754 38.968 75.4554 38.68 76.7994 38.104C78.1434 37.496 79.1514 36.376 79.8234 34.744C80.4954 33.112 80.8314 30.776 80.8314 27.736C80.8314 24.696 80.5274 22.344 79.9194 20.68C79.3114 19.016 78.3354 17.848 76.9914 17.176C75.6794 16.504 73.9354 16.168 71.7594 16.168H65.2794V38.968ZM104.899 43.48C100.003 43.48 96.3393 42.2 93.9073 39.64C91.4753 37.048 90.2593 33.048 90.2593 27.64C90.2593 22.008 91.4753 17.928 93.9073 15.4C96.3393 12.872 100.003 11.608 104.899 11.608C109.827 11.608 113.491 12.872 115.891 15.4C118.323 17.928 119.539 22.008 119.539 27.64C119.539 33.048 118.323 37.048 115.891 39.64C113.491 42.2 109.827 43.48 104.899 43.48ZM104.899 39.064C108.131 39.064 110.499 38.184 112.003 36.424C113.539 34.632 114.307 31.704 114.307 27.64C114.307 23.352 113.539 20.36 112.003 18.664C110.499 16.936 108.131 16.072 104.899 16.072C101.699 16.072 99.3313 16.936 97.7953 18.664C96.2913 20.36 95.5393 23.352 95.5393 27.64C95.5393 31.704 96.2913 34.632 97.7953 36.424C99.3313 38.184 101.699 39.064 104.899 39.064ZM124.641 43V12.088H130.017L139.809 32.104L149.553 12.088H154.929V43H149.745V20.584L141.393 37.672H138.225L129.825 20.584V43H124.641ZM174.649 43.48C169.753 43.48 166.089 42.2 163.657 39.64C161.225 37.048 160.009 33.048 160.009 27.64C160.009 22.008 161.225 17.928 163.657 15.4C166.089 12.872 169.753 11.608 174.649 11.608C179.577 11.608 183.241 12.872 185.641 15.4C188.073 17.928 189.289 22.008 189.289 27.64C189.289 33.048 188.073 37.048 185.641 39.64C183.241 42.2 179.577 43.48 174.649 43.48ZM174.649 39.064C177.881 39.064 180.249 38.184 181.753 36.424C183.289 34.632 184.057 31.704 184.057 27.64C184.057 23.352 183.289 20.36 181.753 18.664C180.249 16.936 177.881 16.072 174.649 16.072C171.449 16.072 169.081 16.936 167.545 18.664C166.041 20.36 165.289 23.352 165.289 27.64C165.289 31.704 166.041 34.632 167.545 36.424C169.081 38.184 171.449 39.064 174.649 39.064ZM203.365 43L191.557 12.088H196.981L206.245 37.384L215.509 12.088H220.933L209.221 43H203.365ZM237.837 43.48C232.941 43.48 229.277 42.2 226.845 39.64C224.413 37.048 223.197 33.048 223.197 27.64C223.197 22.008 224.413 17.928 226.845 15.4C229.277 12.872 232.941 11.608 237.837 11.608C242.765 11.608 246.429 12.872 248.829 15.4C251.261 17.928 252.477 22.008 252.477 27.64C252.477 33.048 251.261 37.048 248.829 39.64C246.429 42.2 242.765 43.48 237.837 43.48ZM237.837 39.064C241.069 39.064 243.437 38.184 244.941 36.424C246.477 34.632 247.245 31.704 247.245 27.64C247.245 23.352 246.477 20.36 244.941 18.664C243.437 16.936 241.069 16.072 237.837 16.072C234.637 16.072 232.269 16.936 230.733 18.664C229.229 20.36 228.477 23.352 228.477 27.64C228.477 31.704 229.229 34.632 230.733 36.424C232.269 38.184 234.637 39.064 237.837 39.064ZM263.629 43V31.528L252.541 12.088H257.965L266.221 27.112L274.477 12.088H279.901L268.813 31.528V43H263.629Z" fill="#3DB072"/>
</svg>
