<svg width="34" height="35" viewBox="0 0 34 35" fill="none" xmlns="http://www.w3.org/2000/svg">
<path d="M23.8873 10.295C23.894 10.295 23.903 10.295 23.912 10.295C24.1471 10.295 24.3654 10.3681 24.5443 10.4941L24.5409 10.4919C24.6714 10.6055 24.7591 10.7653 24.7805 10.9453V10.9486C24.803 11.0859 24.8154 11.2434 24.8154 11.4043C24.8154 11.4774 24.8131 11.5494 24.8075 11.6214V11.6113C24.5544 14.2764 23.4564 20.7395 22.8984 23.723C22.6621 24.9864 22.1975 25.4094 21.7475 25.4499C20.7699 25.541 20.0274 24.8041 19.0801 24.1831C17.5974 23.21 16.7593 22.6048 15.3204 21.6564C13.6565 20.5618 14.7354 19.9576 15.6826 18.9744C15.9313 18.7156 20.2411 14.795 20.3255 14.4395C20.33 14.4181 20.3323 14.3945 20.3323 14.3698C20.3323 14.282 20.2996 14.2021 20.2468 14.1414C20.1883 14.1031 20.1151 14.0818 20.0386 14.0818C19.988 14.0818 19.9396 14.0919 19.8946 14.1088L19.8969 14.1076C19.7484 14.1414 17.3799 15.7066 12.7914 18.8034C12.2908 19.1983 11.6585 19.448 10.97 19.4773H10.9633C9.98788 19.3591 9.1025 19.142 8.26213 18.8326L8.34538 18.8596C7.29013 18.5154 6.452 18.3343 6.524 17.7515C6.56225 17.4485 6.98 17.1384 7.77725 16.8211C12.6883 14.6814 15.9631 13.271 17.6019 12.59C19.4098 11.6304 21.5056 10.8406 23.7095 10.3288L23.8861 10.2939L23.8873 10.295ZM16.9213 0.153137C7.5815 0.175637 0.0181274 7.75251 0.0181274 17.0956C0.0181274 26.4523 7.60288 34.0381 16.9606 34.0381C26.3184 34.0381 33.9031 26.4534 33.9031 17.0956C33.9031 7.75251 26.3398 0.175637 17.0023 0.153137H17C16.9738 0.153137 16.9475 0.153137 16.9213 0.153137Z" fill="#3DB072"/>
</svg>
