<svg width="34" height="34" viewBox="0 0 34 34" fill="none" xmlns="http://www.w3.org/2000/svg">
<g clip-path="url(#clip0_61_36)">
<path d="M17 0C7.61016 0 0 7.61016 0 17C0 26.3898 7.61016 34 17 34C26.3898 34 34 26.3898 34 17C34 7.61016 26.3898 0 17 0ZM23.7867 14.357C23.7934 14.5031 23.7934 14.6559 23.7934 14.8086C23.7934 19.4238 20.2805 24.7496 13.8523 24.7496C11.8801 24.7496 10.0406 24.1719 8.5 23.1824C8.77227 23.2156 9.05117 23.2289 9.33672 23.2289C10.9703 23.2289 12.4777 22.6711 13.673 21.7348C12.1457 21.7082 10.8508 20.6988 10.4125 19.3109C10.625 19.3508 10.8441 19.3707 11.0699 19.3707C11.3887 19.3707 11.7008 19.3309 11.993 19.2445C10.3926 18.9258 9.19062 17.5113 9.19062 15.818V15.7781C9.66211 16.0371 10.2 16.1965 10.7711 16.2164C9.83477 15.5922 9.21719 14.5164 9.21719 13.3078C9.21719 12.6703 9.38984 12.066 9.68867 11.548C11.4152 13.6664 13.9852 15.0543 16.8871 15.2004C16.8273 14.948 16.7941 14.6824 16.7941 14.4035C16.7941 12.4777 18.3613 10.9105 20.2871 10.9105C21.2898 10.9105 22.1996 11.3355 22.8371 12.0129C23.634 11.8535 24.3777 11.568 25.0551 11.1629C24.7961 11.9797 24.2383 12.6637 23.5211 13.0953C24.225 13.009 24.9023 12.823 25.5266 12.5441C25.0617 13.248 24.4707 13.859 23.7867 14.357Z" fill="#3DB072"/>
</g>
<defs>
<clipPath id="clip0_61_36">
<rect width="34" height="34" fill="white"/>
</clipPath>
</defs>
</svg>
